<?xml version="1.0" standalone="no"?>
<!DOCTYPE svg PUBLIC "-//W3C//DTD SVG 20010904//EN"
 "http://www.w3.org/TR/2001/REC-SVG-20010904/DTD/svg10.dtd">
<svg version="1.0" xmlns="http://www.w3.org/2000/svg"
 width="224.000000pt" height="224.000000pt" viewBox="0 0 224.000000 224.000000"
 preserveAspectRatio="xMidYMid meet">
<metadata>
Created by potrace 1.14, written by Peter Selinger 2001-2017
</metadata>
<g transform="translate(0.000000,224.000000) scale(0.100000,-0.100000)"
fill="#000000" stroke="none">
<path d="M1078 2152 l-38 -3 0 -81 c0 -69 2 -79 16 -74 9 3 31 6 50 6 19 0 34
5 34 10 0 6 -16 10 -35 10 -31 0 -35 3 -35 25 0 21 5 25 30 25 17 0 30 5 30
10 0 6 -13 10 -29 10 -17 0 -31 6 -35 16 -9 24 -9 24 29 24 19 0 35 4 35 9 0
14 -11 17 -52 13z"/>
<path d="M1183 2092 c-12 -31 -25 -65 -29 -74 -4 -12 -1 -18 9 -18 9 0 19 9
22 20 10 30 53 27 65 -5 5 -14 14 -25 20 -25 13 0 13 3 -7 88 -14 61 -20 72
-37 72 -16 0 -26 -14 -43 -58z m51 -4 c5 -24 3 -28 -14 -28 -23 0 -23 0 -10
36 12 31 15 30 24 -8z"/>
<path d="M910 2123 c0 -25 18 -135 23 -140 3 -2 23 -1 46 3 50 8 57 32 7 26
l-34 -4 -8 63 c-5 34 -15 64 -21 67 -7 2 -13 -4 -13 -15z"/>
<path d="M1320 2066 c-7 -42 -10 -79 -7 -82 3 -3 27 -6 53 -6 58 -1 84 24 84
83 0 44 -24 66 -82 76 l-35 5 -13 -76z m91 28 c15 -18 15 -60 -1 -79 -7 -8
-26 -15 -42 -15 -30 0 -30 0 -23 46 3 26 9 52 11 59 6 15 39 9 55 -11z"/>
<path d="M780 2101 c0 -5 4 -21 9 -35 9 -22 7 -26 -21 -35 -17 -6 -32 -11 -34
-11 -1 0 -7 13 -12 30 -7 20 -16 28 -25 24 -12 -4 -10 -18 13 -77 15 -40 31
-70 36 -67 10 6 10 27 0 51 -5 11 -1 18 11 22 10 2 25 8 35 12 12 5 18 -1 23
-24 6 -29 36 -45 34 -18 -1 27 -45 131 -56 135 -7 2 -13 -1 -13 -7z"/>
<path d="M1486 2035 c-14 -36 -26 -69 -26 -74 0 -5 12 -14 28 -19 15 -5 35
-13 45 -17 12 -5 17 -2 17 8 0 9 -13 18 -31 22 -21 5 -29 11 -25 22 3 8 6 19
6 24 0 9 17 7 58 -8 6 -3 12 0 12 6 0 6 -11 16 -25 21 -24 9 -32 29 -19 43 3
3 18 1 32 -4 15 -6 29 -6 34 -1 6 6 -7 16 -32 26 -22 9 -42 16 -44 16 -2 0
-16 -29 -30 -65z"/>
<path d="M597 2023 c-26 -15 -47 -33 -47 -40 0 -10 5 -11 19 -3 28 14 26 15
61 -45 30 -52 50 -69 50 -43 0 6 -13 35 -30 64 l-29 52 21 14 c40 27 3 27 -45
1z"/>
<path d="M1602 1981 c-22 -38 -38 -72 -34 -75 11 -12 23 -5 34 19 22 48 49 26
40 -32 -3 -19 0 -33 6 -33 12 0 22 24 22 56 0 14 6 24 14 24 7 0 19 7 26 15
18 22 -1 60 -39 79 l-29 16 -40 -69z m86 6 c4 -19 -20 -32 -43 -23 -13 5 -14
10 -5 26 13 25 43 23 48 -3z"/>
<path d="M496 1961 c-5 -8 3 -24 22 -44 54 -58 61 -97 17 -97 -15 0 -36 14
-58 40 -32 37 -57 51 -57 31 0 -19 87 -101 108 -101 29 0 62 34 62 64 0 31
-83 125 -94 107z"/>
<path d="M1745 1934 c-9 -9 -13 -24 -10 -33 4 -9 9 -28 12 -43 5 -23 2 -28
-15 -28 -12 0 -25 7 -30 16 -5 9 -15 15 -23 12 -19 -6 34 -58 59 -58 39 0 50
38 27 92 -10 25 21 35 44 14 26 -24 35 -6 9 21 -25 27 -50 29 -73 7z"/>
<path d="M1817 1813 c-41 -32 -55 -49 -48 -56 7 -7 16 -6 29 6 25 23 38 21 57
-5 15 -22 14 -24 -12 -45 -18 -15 -24 -26 -18 -32 7 -6 32 6 73 36 42 30 60
49 54 55 -7 7 -18 5 -33 -6 -21 -14 -24 -14 -41 1 -23 21 -23 36 2 58 18 16
19 36 2 35 -4 -1 -33 -22 -65 -47z"/>
<path d="M342 1797 c-38 -40 -25 -95 28 -122 37 -19 74 -11 94 21 23 35 20 62
-13 95 -37 36 -79 38 -109 6z m97 -33 c22 -28 15 -59 -15 -71 -21 -8 -64 17
-77 44 -23 52 54 75 92 27z"/>
<path d="M560 1710 c0 -5 5 -10 11 -10 5 0 7 5 4 10 -3 6 -8 10 -11 10 -2 0
-4 -4 -4 -10z"/>
<path d="M969 1696 c-43 -13 -69 -33 -69 -52 0 -8 -4 -14 -10 -14 -34 0 -64
-136 -35 -160 8 -7 15 -18 15 -24 0 -6 11 -18 23 -27 18 -13 29 -14 67 -5 57
14 105 -4 97 -36 -3 -11 4 -38 15 -60 18 -33 19 -45 10 -74 -10 -34 -5 -60 29
-149 4 -11 10 -28 13 -38 4 -13 12 -16 33 -11 45 11 60 22 75 54 7 16 16 30
20 30 5 0 8 12 8 26 0 16 10 34 26 46 23 19 25 25 19 73 -7 50 -5 55 28 91 59
67 73 108 34 102 -13 -1 -32 7 -44 19 -28 28 -73 116 -73 143 0 18 -10 24 -31
22 -4 -1 -22 3 -40 8 -23 7 -35 6 -40 -2 -10 -15 -79 18 -79 37 0 18 -38 18
-91 1z m291 -335 c0 -6 -4 -13 -10 -16 -5 -3 -10 1 -10 9 0 9 5 16 10 16 6 0
10 -4 10 -9z"/>
<path d="M1913 1677 c-35 -17 -63 -37 -63 -44 0 -18 1 -17 75 19 36 18 65 38
65 45 0 18 -6 16 -77 -20z"/>
<path d="M270 1689 c0 -6 9 -23 21 -37 l21 -27 -41 -3 c-28 -2 -41 -8 -41 -18
0 -12 9 -14 44 -9 31 5 52 2 75 -9 30 -16 51 -14 51 3 0 5 -14 14 -31 21 -17
7 -42 30 -56 52 -25 37 -43 49 -43 27z"/>
<path d="M1675 1680 c3 -5 8 -10 11 -10 2 0 4 5 4 10 0 6 -5 10 -11 10 -5 0
-7 -4 -4 -10z"/>
<path d="M515 1650 c3 -5 8 -10 11 -10 2 0 4 5 4 10 0 6 -5 10 -11 10 -5 0 -7
-4 -4 -10z"/>
<path d="M1695 1650 c3 -5 8 -10 11 -10 2 0 4 5 4 10 0 6 -5 10 -11 10 -5 0
-7 -4 -4 -10z"/>
<path d="M1938 1617 c-73 -24 -96 -53 -33 -41 28 5 35 3 35 -10 0 -8 11 -23
25 -32 23 -15 27 -15 50 0 14 9 25 22 25 30 0 20 -21 76 -28 75 -4 0 -37 -10
-74 -22z m76 -24 c8 -21 -17 -48 -38 -40 -9 4 -16 15 -16 26 0 17 10 24 41 30
4 0 10 -7 13 -16z"/>
<path d="M495 1619 c-9 -14 -2 -20 14 -10 8 6 9 11 3 15 -6 3 -14 1 -17 -5z"/>
<path d="M1705 1622 c-3 -3 4 -12 15 -19 11 -8 18 -18 15 -23 -3 -5 -1 -11 4
-14 5 -3 11 0 14 8 3 8 -1 17 -10 20 -8 4 -13 12 -10 19 5 13 -17 19 -28 9z"/>
<path d="M470 1575 c0 -9 6 -12 15 -9 8 4 12 10 9 15 -8 14 -24 10 -24 -6z"/>
<path d="M455 1540 c3 -5 11 -10 16 -10 6 0 7 5 4 10 -3 6 -11 10 -16 10 -6 0
-7 -4 -4 -10z"/>
<path d="M1753 1528 c1 -13 7 -26 12 -30 6 -5 5 -11 -4 -17 -11 -7 -10 -11 7
-20 16 -8 21 -7 26 4 3 8 1 15 -5 15 -6 0 -9 7 -5 15 3 8 1 15 -4 15 -6 0 -10
9 -10 20 0 11 -4 20 -10 20 -5 0 -9 -10 -7 -22z"/>
<path d="M430 1510 c0 -12 28 -21 35 -11 2 5 -4 11 -15 14 -11 3 -20 2 -20 -3z"/>
<path d="M330 1484 c-8 -1 -45 -6 -82 -9 -56 -5 -68 -10 -68 -25 0 -24 136
-104 144 -84 3 8 -4 18 -14 24 -31 16 -25 50 10 63 17 6 30 17 30 24 0 7 -1
12 -2 12 -2 -1 -10 -3 -18 -5z m-60 -54 c0 -20 -1 -20 -30 -5 -16 9 -30 18
-30 20 0 3 14 5 30 5 23 0 30 -4 30 -20z"/>
<path d="M428 1469 c17 -18 15 -32 -4 -25 -13 5 -14 3 -7 -6 15 -20 15 -91 0
-82 -7 4 -4 -2 6 -13 12 -14 14 -22 7 -25 -9 -3 -8 -7 2 -15 9 -8 19 -9 28 -2
13 8 13 10 1 18 -12 8 -13 12 -1 25 11 14 10 16 -4 10 -18 -7 -23 20 -5 32 8
4 7 9 -2 15 -11 7 -10 11 6 23 12 9 15 15 7 16 -7 0 -12 8 -10 17 2 11 -5 19
-17 21 -16 3 -18 1 -7 -9z"/>
<path d="M1782 1442 c-20 -3 -21 -6 -10 -19 11 -13 11 -17 0 -21 -10 -3 -10
-7 -1 -19 10 -12 10 -17 -2 -25 -11 -7 -11 -11 -1 -15 18 -7 15 -23 -5 -23
-13 0 -14 -3 -5 -12 18 -18 15 -31 -5 -23 -15 5 -16 4 -5 -6 16 -17 15 -29 -2
-29 -10 0 -12 -7 -8 -22 4 -17 2 -20 -12 -15 -14 5 -15 3 -6 -13 7 -14 7 -21
-3 -27 -8 -4 -16 -15 -19 -24 -6 -15 -3 -15 22 -6 20 8 26 14 17 19 -9 6 -8
11 5 18 9 6 15 17 12 25 -4 8 1 17 9 21 9 3 13 12 11 19 -3 7 -1 16 5 19 6 4
8 13 5 20 -3 8 -1 17 5 20 6 4 8 13 5 20 -3 8 0 17 6 21 9 6 9 9 -1 15 -10 7
-10 12 0 23 9 12 9 16 -1 19 -10 4 -10 8 1 22 17 20 14 23 -17 18z"/>
<path d="M1967 1431 c-55 -7 -67 -25 -20 -29 25 -3 34 -9 39 -28 9 -34 24 -30
24 6 0 23 5 30 19 30 13 0 20 -9 25 -30 3 -16 11 -30 17 -30 8 0 9 11 5 31 -3
17 -6 38 -6 45 0 15 -17 16 -103 5z"/>
<path d="M166 1343 c-10 -11 -6 -67 7 -84 34 -44 103 -47 132 -6 17 24 20 87
5 87 -5 0 -10 -13 -10 -29 0 -32 -30 -61 -62 -61 -29 0 -61 38 -55 66 4 24 -5
39 -17 27z"/>
<path d="M1975 1312 c-35 -7 -55 -33 -55 -73 0 -46 27 -69 80 -69 45 0 68 17
76 55 10 53 -42 98 -101 87z m48 -31 c55 -21 40 -81 -21 -81 -61 0 -84 43 -40
74 26 19 29 19 61 7z"/>
<path d="M445 1264 c15 -12 16 -18 7 -21 -10 -4 -8 -8 5 -18 13 -10 20 -10 25
-2 12 18 9 29 -4 21 -8 -5 -9 0 -6 14 5 19 2 22 -20 22 -26 -1 -27 -1 -7 -16z"/>
<path d="M471 1201 c-11 -7 -10 -11 7 -20 16 -9 21 -7 25 9 5 21 -8 26 -32 11z"/>
<path d="M227 1190 c-63 -8 -69 -11 -59 -25 11 -16 152 4 152 21 0 15 -5 15
-93 4z"/>
<path d="M503 1167 l-22 -12 22 -10 c19 -9 22 -8 22 12 0 13 0 23 0 23 0 -1
-10 -6 -22 -13z"/>
<path d="M284 1131 c-18 -11 -41 -17 -56 -14 -34 7 -52 -18 -44 -62 4 -19 11
-37 16 -40 16 -10 150 28 150 42 0 10 -9 12 -35 7 -31 -5 -35 -4 -35 15 0 14
9 25 25 31 14 5 25 16 25 25 0 20 -8 19 -46 -4z m-30 -57 c8 -20 8 -20 -20
-28 -22 -7 -40 16 -28 35 9 15 41 10 48 -7z"/>
<path d="M1905 1141 c-3 -6 2 -14 12 -17 56 -18 57 -19 39 -37 -10 -9 -28 -17
-42 -17 -13 0 -24 -5 -24 -11 0 -6 16 -9 38 -7 27 2 41 -2 53 -16 21 -26 55
-13 68 26 17 49 14 54 -41 67 -29 6 -63 14 -74 17 -12 3 -25 1 -29 -5z m129
-50 c3 -4 -1 -16 -8 -26 -16 -23 -46 -13 -46 15 0 15 7 20 24 20 14 0 27 -4
30 -9z"/>
<path d="M1867 992 c-22 -24 -22 -65 1 -85 28 -25 102 -51 113 -40 7 7 -10 20
-48 39 -42 21 -58 35 -58 49 0 26 43 32 84 11 35 -18 61 -21 61 -6 0 13 -84
50 -114 50 -13 0 -30 -8 -39 -18z"/>
<path d="M284 975 c3 -8 9 -21 12 -29 3 -9 -3 -19 -16 -26 -18 -10 -22 -8 -32
20 -7 21 -14 28 -21 21 -10 -10 7 -66 24 -77 16 -9 151 58 140 69 -7 7 -19 6
-37 -2 -15 -6 -28 -10 -29 -9 -1 2 -8 13 -14 26 -13 24 -37 31 -27 7z"/>
<path d="M356 860 c-63 -96 -55 -108 49 -71 42 14 75 32 75 39 0 10 -8 12 -28
7 -38 -8 -60 16 -44 49 5 12 7 28 3 35 -5 7 -25 -14 -55 -59z m41 -37 c2 -6
-10 -16 -27 -21 l-30 -11 17 24 c18 25 34 28 40 8z"/>
<path d="M1815 881 c-3 -6 13 -24 35 -42 22 -18 38 -34 36 -36 -2 -2 -21 3
-41 11 -38 16 -75 21 -75 10 0 -4 16 -29 35 -55 19 -27 32 -49 29 -49 -3 0
-25 14 -49 30 -29 20 -46 26 -51 19 -8 -13 -3 -18 68 -63 51 -32 58 -34 66
-19 7 12 1 29 -25 65 -19 26 -33 48 -31 48 1 0 27 -9 57 -21 43 -16 56 -18 62
-7 13 20 12 21 -45 71 -58 50 -62 52 -71 38z"/>
<path d="M787 753 c-2 -5 -16 -55 -31 -113 -15 -58 -30 -113 -32 -122 -4 -15
1 -18 26 -18 23 0 33 5 37 20 4 14 14 20 35 20 21 0 31 -6 35 -20 4 -14 14
-20 34 -20 35 0 35 0 8 103 -43 171 -36 157 -74 157 -19 0 -36 -3 -38 -7z m52
-145 c1 -22 -4 -28 -20 -28 -18 0 -20 4 -14 33 4 17 9 41 13 52 5 18 6 18 13
-5 4 -14 7 -37 8 -52z"/>
<path d="M930 748 c1 -7 14 -47 30 -88 17 -41 30 -94 30 -117 0 -42 0 -43 35
-43 35 0 35 1 35 43 0 23 14 78 30 120 17 43 30 82 30 88 0 5 -13 9 -30 9 -26
0 -30 -5 -40 -42 -6 -24 -14 -52 -17 -63 l-6 -20 -8 20 c-5 11 -13 39 -19 63
-10 38 -14 42 -40 42 -18 0 -30 -5 -30 -12z"/>
<path d="M1157 754 c-4 -4 -7 -63 -7 -131 l0 -123 80 0 c73 0 80 2 80 20 0 17
-7 20 -45 20 l-44 0 -3 108 c-3 106 -3 107 -28 110 -14 2 -29 0 -33 -4z"/>
<path d="M1345 750 c-3 -6 -5 -64 -4 -130 l2 -120 34 0 33 0 0 60 0 60 50 0
c38 0 50 4 50 15 0 11 -12 15 -50 15 l-50 0 0 35 0 35 50 0 c43 0 50 3 50 20
0 18 -7 20 -79 20 -44 0 -83 -5 -86 -10z"/>
<path d="M341 343 c2 -54 2 -55 8 -18 l6 40 23 -37 c13 -21 28 -38 33 -38 5 0
9 25 9 55 0 30 -4 55 -10 55 -5 0 -10 -17 -10 -37 l-1 -38 -20 38 c-11 20 -24
37 -29 37 -6 0 -9 -26 -9 -57z"/>
<path d="M810 390 c0 -5 5 -10 10 -10 6 0 10 5 10 10 0 6 -4 10 -10 10 -5 0
-10 -4 -10 -10z"/>
<path d="M1520 347 l0 -54 33 1 c30 1 32 3 32 36 0 30 -3 35 -22 34 -13 0 -23
5 -23 12 0 7 -4 16 -10 19 -6 4 -10 -14 -10 -48z m55 -7 c8 -13 -14 -42 -26
-34 -5 3 -9 14 -9 25 0 20 24 26 35 9z"/>
<path d="M1890 381 c0 -14 -5 -18 -20 -14 -14 4 -23 -2 -31 -21 -16 -33 1 -55
42 -54 28 1 29 2 29 55 0 29 -4 53 -10 53 -5 0 -10 -9 -10 -19z m0 -50 c0 -11
-5 -23 -11 -27 -15 -9 -33 12 -26 30 9 23 37 20 37 -3z"/>
<path d="M602 377 c-17 -20 0 -81 23 -85 16 -3 18 -1 8 9 -17 17 -17 46 -1 51
9 3 8 9 -4 21 -12 13 -18 14 -26 4z"/>
<path d="M451 332 c-1 -43 -1 -43 32 -39 30 3 32 6 32 40 0 20 -3 37 -7 37 -5
0 -8 -10 -8 -22 0 -27 -16 -55 -26 -46 -3 4 -10 22 -14 40 -8 33 -8 33 -9 -10z"/>
<path d="M540 328 c0 -21 5 -38 10 -38 6 0 10 14 10 30 0 17 5 30 10 30 6 0
10 4 10 9 0 6 -9 9 -20 8 -16 -1 -20 -8 -20 -39z"/>
<path d="M662 333 c3 -35 6 -38 36 -40 31 -1 32 0 32 38 0 21 -4 39 -10 39 -5
0 -10 -13 -10 -29 0 -17 -4 -32 -9 -36 -13 -8 -26 16 -22 43 1 12 -3 22 -9 22
-7 0 -10 -14 -8 -37z"/>
<path d="M750 328 c0 -21 5 -38 10 -38 6 0 10 14 10 30 0 17 5 30 10 30 6 0
10 4 10 8 0 4 -9 8 -20 8 -16 0 -20 -7 -20 -38z"/>
<path d="M810 330 c0 -22 5 -40 10 -40 6 0 10 18 10 40 0 22 -4 40 -10 40 -5
0 -10 -18 -10 -40z"/>
<path d="M850 328 c0 -21 5 -38 10 -38 6 0 10 14 10 30 0 20 5 30 15 30 10 0
15 -10 15 -30 0 -16 5 -30 11 -30 6 0 9 16 7 38 -3 34 -5 37 -35 37 -32 1 -33
-1 -33 -37z"/>
<path d="M952 361 c-8 -5 -12 -21 -10 -37 2 -21 9 -30 26 -32 31 -5 28 -20 -5
-25 -21 -4 -19 -4 7 -3 35 1 35 1 38 51 3 46 1 51 -20 52 -13 1 -29 -1 -36 -6z
m38 -31 c0 -25 -18 -36 -26 -16 -8 21 3 49 16 41 5 -3 10 -15 10 -25z"/>
<path d="M1070 359 c0 -5 5 -7 10 -4 6 3 15 3 21 -1 7 -4 2 -11 -13 -18 -34
-17 -29 -40 10 -44 29 -3 32 -1 32 25 0 16 -5 34 -12 41 -15 15 -48 16 -48 1z
m40 -38 c0 -12 -20 -25 -27 -18 -7 7 6 27 18 27 5 0 9 -4 9 -9z"/>
<path d="M1190 326 c0 -22 3 -36 7 -32 4 4 8 17 8 29 0 12 7 23 18 25 13 3 17
-3 17 -27 0 -17 5 -31 10 -31 15 0 12 56 -3 68 -7 6 -23 10 -35 9 -19 -1 -22
-7 -22 -41z"/>
<path d="M1280 351 c-16 -31 3 -61 38 -60 21 1 22 2 7 6 -34 8 -41 23 -11 23
23 0 27 4 24 23 -4 30 -43 35 -58 8z m45 -1 c3 -5 -3 -10 -15 -10 -12 0 -18 5
-15 10 3 6 10 10 15 10 5 0 12 -4 15 -10z"/>
<path d="M1363 330 c11 -41 37 -55 37 -20 0 11 4 20 9 20 5 0 11 -9 14 -20 8
-32 24 -23 35 20 11 45 -1 55 -16 13 l-10 -28 -7 28 c-4 15 -11 27 -15 27 -4
0 -11 -12 -15 -27 l-8 -28 -6 24 c-4 14 -11 26 -17 28 -8 3 -8 -7 -1 -37z"/>
<path d="M1610 329 c0 -21 5 -39 10 -39 6 0 10 11 10 24 0 14 5 28 10 31 16
10 11 21 -10 22 -17 2 -20 -4 -20 -38z"/>
<path d="M1669 346 c-15 -33 2 -56 40 -55 20 1 22 2 6 6 -34 8 -41 23 -11 23
23 0 27 4 24 23 -5 33 -45 35 -59 3z m46 4 c3 -5 -3 -10 -15 -10 -12 0 -18 5
-15 10 3 6 10 10 15 10 5 0 12 -4 15 -10z"/>
<path d="M1760 356 c-6 -8 -10 -25 -8 -38 2 -18 10 -24 33 -25 l30 -3 -25 12
-25 12 28 4 c29 4 35 20 15 40 -16 16 -33 15 -48 -2z m35 -6 c3 -5 -1 -10 -10
-10 -9 0 -13 5 -10 10 3 6 8 10 10 10 2 0 7 -4 10 -10z"/>
<path d="M562 190 c-10 -26 -2 -104 9 -93 4 4 9 26 10 48 1 22 7 46 12 53 7 8
5 12 -7 12 -9 0 -20 -9 -24 -20z"/>
<path d="M940 190 c0 -15 -7 -20 -24 -20 -26 0 -41 -26 -30 -53 7 -20 26 -27
53 -20 18 5 21 13 21 59 0 30 -4 54 -10 54 -5 0 -10 -9 -10 -20z m-2 -58 c2
-14 -2 -22 -12 -22 -19 0 -29 17 -22 36 8 22 30 12 34 -14z"/>
<path d="M1225 200 c-3 -5 1 -10 10 -10 9 0 13 5 10 10 -3 6 -8 10 -10 10 -2
0 -7 -4 -10 -10z"/>
<path d="M1502 193 c-5 -10 -6 -38 -2 -63 8 -48 11 -50 14 -8 0 14 4 29 8 33
4 4 4 14 1 22 -3 8 0 19 8 24 11 7 11 9 -3 9 -10 0 -21 -8 -26 -17z"/>
<path d="M1605 200 c-3 -5 -1 -10 4 -10 6 0 11 5 11 10 0 6 -2 10 -4 10 -3 0
-8 -4 -11 -10z"/>
<path d="M640 150 l0 -50 38 1 c30 2 32 3 10 6 -26 4 -28 8 -28 49 0 24 -4 44
-10 44 -5 0 -10 -22 -10 -50z"/>
<path d="M1409 173 c-6 -16 -13 -41 -15 -58 l-5 -30 17 23 c20 27 41 28 49 2
4 -11 10 -18 15 -15 12 8 -22 105 -37 105 -7 0 -18 -12 -24 -27z m27 -30 c-11
-11 -19 6 -11 24 8 17 8 17 12 0 3 -10 2 -21 -1 -24z"/>
<path d="M464 143 c-5 -19 -2 -30 11 -40 23 -16 27 -16 50 0 13 10 16 21 11
40 -5 22 -12 27 -36 27 -24 0 -31 -5 -36 -27z m51 -9 c0 -10 -8 -20 -17 -22
-18 -3 -26 27 -11 42 12 11 28 0 28 -20z"/>
<path d="M727 163 c-4 -3 -7 -19 -7 -34 0 -31 33 -50 53 -30 8 8 5 11 -10 11
-12 0 -25 5 -28 10 -4 6 7 10 25 10 25 0 31 3 26 16 -3 9 -6 18 -6 20 0 7 -46
5 -53 -3z m38 -13 c3 -5 -1 -10 -9 -10 -9 0 -16 5 -16 10 0 6 4 10 9 10 6 0
13 -4 16 -10z"/>
<path d="M823 163 c23 -6 22 -19 -3 -26 -20 -5 -27 -31 -12 -41 5 -3 18 -2 30
1 17 4 22 13 22 39 0 31 -3 34 -27 33 -17 -1 -21 -3 -10 -6z m22 -43 c-3 -5
-10 -10 -16 -10 -5 0 -9 5 -9 10 0 6 7 10 16 10 8 0 12 -4 9 -10z"/>
<path d="M987 163 c-4 -3 -7 -17 -7 -29 0 -28 36 -52 53 -35 8 8 5 11 -11 11
-12 0 -22 5 -22 10 0 6 12 10 26 10 20 0 25 4 20 16 -3 9 -6 18 -6 20 0 7 -46
5 -53 -3z m43 -13 c0 -5 -7 -10 -15 -10 -8 0 -15 5 -15 10 0 6 7 10 15 10 8 0
15 -4 15 -10z"/>
<path d="M1060 136 c0 -19 5 -38 10 -41 6 -4 10 5 10 21 0 15 8 33 18 40 15
12 14 13 -10 14 -25 0 -28 -3 -28 -34z"/>
<path d="M1124 159 c-4 -7 4 -20 17 -30 l24 -19 -24 0 c-17 0 -22 -3 -15 -10
14 -14 44 -2 44 16 0 8 -7 17 -15 20 -20 8 -19 21 3 27 13 4 12 5 -5 6 -12 0
-25 -4 -29 -10z"/>
<path d="M1223 135 c-1 -19 3 -38 8 -41 5 -3 9 13 9 35 0 50 -16 55 -17 6z"/>
<path d="M1270 129 c0 -25 4 -38 10 -34 6 4 10 14 9 23 -5 54 23 55 32 1 4
-27 7 -30 13 -16 5 9 5 28 2 42 -5 20 -13 25 -36 25 -28 0 -30 -2 -30 -41z"/>
<path d="M1551 130 c1 -21 3 -27 6 -15 3 11 12 28 20 37 14 15 13 17 -6 15
-17 -1 -21 -7 -20 -37z"/>
<path d="M1602 141 c-1 -16 2 -32 8 -36 6 -4 10 8 10 29 0 43 -15 48 -18 7z"/>
<path d="M1646 154 c-3 -9 -6 -22 -6 -29 0 -18 37 -38 52 -29 7 5 4 10 -10 15
-29 11 -28 37 1 49 21 9 21 9 -4 9 -16 1 -29 -6 -33 -15z"/>
<path d="M1738 163 c27 -5 29 -23 3 -23 -22 0 -35 -26 -18 -37 7 -4 22 -8 35
-8 20 -1 23 3 20 35 -3 31 -6 35 -33 37 -20 1 -23 0 -7 -4z m22 -43 c0 -5 -7
-10 -16 -10 -8 0 -12 5 -9 10 3 6 10 10 16 10 5 0 9 -4 9 -10z"/>
</g>
</svg>
